<?xml version="1.0" encoding="UTF-8" standalone="no"?>
<!-- Created with Inkscape (http://www.inkscape.org/) -->

<svg
   width="64pt"
   height="64pt"
   viewBox="0 0 22.577778 22.577778"
   version="1.1"
   id="svg831"
   inkscape:version="1.1.1 (3bf5ae0d25, 2021-09-20)"
   sodipodi:docname="Export - Unblash - 64px.svg"
   inkscape:export-filename="C:\Users\User\Desktop\CARLOS PROJECT\3. MARET 1\EXPORT\FLAT\11 - Audio File.png"
   inkscape:export-xdpi="576"
   inkscape:export-ydpi="576"
   xmlns:inkscape="http://www.inkscape.org/namespaces/inkscape"
   xmlns:sodipodi="http://sodipodi.sourceforge.net/DTD/sodipodi-0.dtd"
   xmlns="http://www.w3.org/2000/svg"
   xmlns:svg="http://www.w3.org/2000/svg"
   xmlns:rdf="http://www.w3.org/1999/02/22-rdf-syntax-ns#"
   xmlns:cc="http://creativecommons.org/ns#"
   xmlns:dc="http://purl.org/dc/elements/1.1/">
  <defs
     id="defs825">
    <pattern
       id="EMFhbasepattern"
       patternUnits="userSpaceOnUse"
       width="6"
       height="6"
       x="0"
       y="0" />
    <pattern
       id="EMFhbasepattern-9"
       patternUnits="userSpaceOnUse"
       width="6"
       height="6"
       x="0"
       y="0" />
    <pattern
       id="EMFhbasepattern-0"
       patternUnits="userSpaceOnUse"
       width="6"
       height="6"
       x="0"
       y="0" />
    <pattern
       id="EMFhbasepattern-7"
       patternUnits="userSpaceOnUse"
       width="6"
       height="6"
       x="0"
       y="0" />
    <pattern
       id="EMFhbasepattern-2"
       patternUnits="userSpaceOnUse"
       width="6"
       height="6"
       x="0"
       y="0" />
    <pattern
       id="EMFhbasepattern-98"
       patternUnits="userSpaceOnUse"
       width="6"
       height="6"
       x="0"
       y="0" />
    <pattern
       id="EMFhbasepattern-6"
       patternUnits="userSpaceOnUse"
       width="6"
       height="6"
       x="0"
       y="0" />
    <pattern
       id="EMFhbasepattern-01"
       patternUnits="userSpaceOnUse"
       width="6"
       height="6"
       x="0"
       y="0" />
    <pattern
       id="EMFhbasepattern-07"
       patternUnits="userSpaceOnUse"
       width="6"
       height="6"
       x="0"
       y="0" />
    <pattern
       id="EMFhbasepattern-8"
       patternUnits="userSpaceOnUse"
       width="6"
       height="6"
       x="0"
       y="0" />
    <pattern
       id="EMFhbasepattern-4"
       patternUnits="userSpaceOnUse"
       width="6"
       height="6"
       x="0"
       y="0" />
    <pattern
       id="EMFhbasepattern-40"
       patternUnits="userSpaceOnUse"
       width="6"
       height="6"
       x="0"
       y="0" />
    <pattern
       id="EMFhbasepattern-08"
       patternUnits="userSpaceOnUse"
       width="6"
       height="6"
       x="0"
       y="0" />
    <pattern
       id="EMFhbasepattern-04"
       patternUnits="userSpaceOnUse"
       width="6"
       height="6"
       x="0"
       y="0" />
    <pattern
       id="EMFhbasepattern-014"
       patternUnits="userSpaceOnUse"
       width="6"
       height="6"
       x="0"
       y="0" />
    <pattern
       id="EMFhbasepattern-27"
       patternUnits="userSpaceOnUse"
       width="6"
       height="6"
       x="0"
       y="0" />
    <pattern
       id="EMFhbasepattern-09"
       patternUnits="userSpaceOnUse"
       width="6"
       height="6"
       x="0"
       y="0" />
    <pattern
       id="EMFhbasepattern-5"
       patternUnits="userSpaceOnUse"
       width="6"
       height="6"
       x="0"
       y="0" />
    <pattern
       id="EMFhbasepattern-018"
       patternUnits="userSpaceOnUse"
       width="6"
       height="6"
       x="0"
       y="0" />
  </defs>
  <sodipodi:namedview
     id="base"
     pagecolor="#ffffff"
     bordercolor="#666666"
     borderopacity="1.0"
     inkscape:pageopacity="0.0"
     inkscape:pageshadow="2"
     inkscape:zoom="4.5878906"
     inkscape:cx="23.322265"
     inkscape:cy="36.727118"
     inkscape:document-units="pt"
     inkscape:current-layer="layer1"
     showgrid="false"
     units="pt"
     inkscape:window-width="1920"
     inkscape:window-height="1001"
     inkscape:window-x="-9"
     inkscape:window-y="41"
     inkscape:window-maximized="1"
     inkscape:pagecheckerboard="true"
     inkscape:showpageshadow="false"
     inkscape:object-paths="true"
     inkscape:snap-intersection-paths="true"
     inkscape:snap-smooth-nodes="true"
     inkscape:snap-midpoints="true"
     showguides="true"
     inkscape:snap-bbox="true"
     inkscape:bbox-nodes="true"
     inkscape:snap-nodes="false"
     inkscape:snap-global="true">
    <inkscape:grid
       type="xygrid"
       id="grid1378" />
    <sodipodi:guide
       position="0.97013831,21.607643"
       orientation="78.000048,0"
       id="guide1380"
       inkscape:locked="false" />
    <sodipodi:guide
       position="0.97013831,0.97013129"
       orientation="0,78.000005"
       id="guide1382"
       inkscape:locked="false" />
    <sodipodi:guide
       position="21.607639,0.97013129"
       orientation="-78.000048,0"
       id="guide1384"
       inkscape:locked="false" />
    <sodipodi:guide
       position="21.607639,21.607643"
       orientation="0,-78.000005"
       id="guide1386"
       inkscape:locked="false" />
  </sodipodi:namedview>
  <metadata
     id="metadata828">
    <rdf:RDF>
      <cc:Work
         rdf:about="">
        <dc:format>image/svg+xml</dc:format>
        <dc:type
           rdf:resource="http://purl.org/dc/dcmitype/StillImage" />
      </cc:Work>
    </rdf:RDF>
  </metadata>
  <g
     inkscape:label="Icon"
     inkscape:groupmode="layer"
     id="layer1"
     transform="translate(0,-274.42223)">
    <g
       id="g6227"
       style="display:inline;stroke-width:0.743299"
       transform="matrix(1.3453538,0,0,1.3453538,81.972516,-145.1831)">
      <path
         style="color:#000000;fill:#ececec;stroke-width:0.743299;stroke-linecap:round;stroke-linejoin:round;-inkscape-stroke:none"
         d="m -57.65625,312.61328 c -0.589223,0 -1.072265,0.48307 -1.072266,1.07227 v 13.19531 c 10e-7,0.5892 0.483043,1.07227 1.072266,1.07226 h 10.234375 c 0.589223,10e-6 1.072265,-0.48306 1.072266,-1.07226 v -9.69531 c -10e-7,-0.41678 -0.171844,-0.81525 -0.476563,-1.09961 l -3.253906,-3.03321 c -0.302,-0.28182 -0.698238,-0.43944 -1.111328,-0.43945 z"
         id="path163626" />
      <path
         style="color:#000000;fill:#333333;fill-opacity:1;stroke-width:0.743299;stroke-linecap:round;stroke-linejoin:round;-inkscape-stroke:none"
         d="m -51.630859,322.32812 a 0.26461046,0.26461046 0 0 0 -0.263672,0.26563 v 1.93945 a 0.26461046,0.26461046 0 0 0 0.263672,0.26367 h 0.419922 c 0.629205,0 1.105472,-0.57484 1.105468,-1.23437 -2e-6,-0.65953 -0.476273,-1.23438 -1.105468,-1.23438 z"
         id="path210253" />
      <path
         id="path85520"
         style="color:#000000;fill:#1a1a1a;fill-opacity:1;stroke-width:2.80932;stroke-linecap:round;stroke-linejoin:round;-inkscape-stroke:none"
         d="m -195.14062,159.72852 a 1.0001025,1.0001025 0 0 0 -0.9961,1.0039 v 7.33008 a 1.0001025,1.0001025 0 0 0 0.9961,0.99609 h 1.58789 c 0.50163,0 0.97729,-0.0975 1.41601,-0.27343 v -8.78321 c -0.43872,-0.17595 -0.91439,-0.27343 -1.41601,-0.27343 z"
         transform="matrix(0.26458334,0,0,0.26458334,0,280.06666)" />
      <path
         style="color:#000000;fill:#4d4d4d;fill-opacity:1;stroke-width:0.743299;stroke-linecap:round;stroke-linejoin:round;-inkscape-stroke:none"
         d="m -52.152344,320.55469 -3.148437,1.5625 a 0.26461046,0.26461046 0 0 0 -0.146485,0.23828 v 2.42383 a 0.26461046,0.26461046 0 0 0 0.146485,0.23632 l 3.148437,1.5625 a 0.26461046,0.26461046 0 0 0 0.03516,0.0137 c 0.191201,0.064 0.396515,0.009 0.533203,-0.10938 0.136687,-0.11844 0.21875,-0.29561 0.21875,-0.49023 v -4.84961 c 0,-0.19787 -0.07962,-0.37463 -0.216797,-0.49805 -0.137179,-0.12342 -0.372826,-0.18783 -0.570313,-0.0898 z"
         id="path210058" />
      <path
         id="path81065"
         style="color:#000000;fill:#363636;fill-opacity:1;stroke-width:0.743299;stroke-linecap:round;stroke-linejoin:round;-inkscape-stroke:none"
         d="m -51.960138,320.50709 c -0.065,0.002 -0.130522,0.0169 -0.192236,0.0475 l -3.148645,1.56269 a 0.26461046,0.26461046 0 0 0 -0.146243,0.23823 v 0.52917 a 0.26461046,0.26461046 0 0 1 0.146243,-0.23823 l 3.148645,-1.56269 c 0.197488,-0.098 0.433329,-0.0335 0.570508,0.0899 0.137178,0.12342 0.216524,0.30029 0.216524,0.49816 v -0.52916 c 0,-0.19787 -0.07935,-0.37475 -0.216524,-0.49817 -0.09431,-0.0848 -0.235276,-0.14199 -0.378272,-0.13745 z" />
      <path
         id="path74320"
         style="color:#000000;fill:#363636;fill-opacity:1;stroke-width:2.80932;stroke-linecap:round;stroke-linejoin:round;-inkscape-stroke:none"
         d="m -207.08008,157.97266 -1.93164,0.95898 a 1.0001025,1.0001025 0 0 0 -0.55273,0.90039 v 9.16016 a 1.0001025,1.0001025 0 0 0 0.55273,0.89453 l 1.9336,0.95898 c 0.39784,-0.50719 0.63085,-1.16222 0.63085,-1.8457 v -9.17578 c 0,-0.68477 -0.23358,-1.34238 -0.63281,-1.85156 z"
         transform="matrix(0.26458334,0,0,0.26458334,0,280.06666)" />
      <path
         id="path163434"
         style="color:#000000;fill:#cccccc;stroke-width:2.80932;stroke-linecap:round;stroke-linejoin:round;-inkscape-stroke:none"
         d="m -192.44531,123.09961 v 13.125 c 0,1.66481 1.36844,3.0332 3.0332,3.0332 h 14.13672 c -0.21865,-1.18789 -0.80896,-2.28485 -1.70508,-3.12109 l -12.29883,-11.46484 c -0.88639,-0.82716 -1.98701,-1.37042 -3.16601,-1.57227 z"
         transform="matrix(0.26458334,0,0,0.26458334,0,280.06666)" />
      <path
         id="path1343"
         style="color:#000000;fill:#3a4d5c;stroke-width:2.80932;stroke-linecap:round;stroke-linejoin:round;-inkscape-stroke:none"
         d="m -213.8457,132.99023 a 1.0000006,1.0000006 0 0 0 -0.9961,0.99805 1.0000006,1.0000006 0 0 0 0.9961,1.00391 h 16.29101 a 1.0000006,1.0000006 0 0 0 0.99805,-1.00391 1.0000006,1.0000006 0 0 0 -0.99805,-0.99805 z m 0,4.99805 a 1.0000006,1.0000006 0 0 0 -0.9961,1.00391 1.0000006,1.0000006 0 0 0 0.9961,0.99609 h 4.07422 a 1.0000006,1.0000006 0 0 0 1.0039,-0.99609 1.0000006,1.0000006 0 0 0 -1.0039,-1.00391 z m 8.14843,0 a 1.0000006,1.0000006 0 0 0 -1.0039,1.00391 1.0000006,1.0000006 0 0 0 1.0039,0.99609 h 10.17969 a 1.0000006,1.0000006 0 0 0 0.99805,-0.99609 1.0000006,1.0000006 0 0 0 -0.99805,-1.00391 z m -8.14843,5.00586 a 1.0000006,1.0000006 0 0 0 -0.9961,0.99609 1.0000006,1.0000006 0 0 0 0.9961,0.9961 h 16.29101 a 1.0000006,1.0000006 0 0 0 0.99805,-0.9961 1.0000006,1.0000006 0 0 0 -0.99805,-0.99609 z m 20.36718,0 a 1.0000006,1.0000006 0 0 0 -1.0039,0.99609 1.0000006,1.0000006 0 0 0 1.0039,0.9961 h 13.22657 a 1.0000006,1.0000006 0 0 0 1.00586,-0.9961 1.0000006,1.0000006 0 0 0 -1.00586,-0.99609 z m -20.36718,4.99609 a 1.0000006,1.0000006 0 0 0 -0.9961,0.99805 1.0000006,1.0000006 0 0 0 0.9961,1.00391 h 33.59375 a 1.0000006,1.0000006 0 0 0 1.00586,-1.00391 1.0000006,1.0000006 0 0 0 -1.00586,-0.99805 z"
         transform="matrix(0.26458334,0,0,0.26458334,0,280.06666)" />
      <path
         style="color:#000000;fill:#4d4d4d;fill-opacity:1;stroke-width:0.743299;stroke-linecap:round;stroke-linejoin:round;-inkscape-stroke:none"
         d="m -56.884766,322.53125 c -0.513143,0 -0.894531,0.47738 -0.894531,1.03516 0,0.55779 0.381388,1.03711 0.894531,1.03711 h 0.63086 a 0.26461046,0.26461046 0 0 0 0.265625,-0.26563 v -1.54297 a 0.26461046,0.26461046 0 0 0 -0.265625,-0.26367 z"
         id="path209670" />
      <path
         id="path72437"
         style="color:#000000;fill:#363636;fill-opacity:1;stroke-width:0.743299;stroke-linecap:round;stroke-linejoin:round;-inkscape-stroke:none"
         d="m -56.884902,322.53125 c -0.513141,0 -0.894519,0.4773 -0.894519,1.03508 0,0.0909 0.01029,0.17961 0.02946,0.26458 0.09856,-0.43602 0.435615,-0.77049 0.865063,-0.77049 h 0.63097 a 0.26461046,0.26461046 0 0 1 0.265615,0.26355 v -0.52917 a 0.26461046,0.26461046 0 0 0 -0.265615,-0.26355 z" />
      <path
         style="color:#000000;fill:#4d4d4d;fill-opacity:1;stroke-width:0.743299;stroke-linecap:round;stroke-linejoin:round;-inkscape-stroke:none"
         d="m -55.833984,321.60352 c -0.397085,0 -0.683593,0.35826 -0.683594,0.75 v 2.42773 c 10e-7,0.39174 0.286509,0.74805 0.683594,0.74805 h 0.230468 c 0.397085,0 0.685547,-0.35631 0.685547,-0.74805 v -2.42773 c 0,-0.39174 -0.288462,-0.75 -0.685547,-0.75 z"
         id="path209862" />
      <path
         id="path2869"
         style="color:#000000;fill:#333333;fill-opacity:1;stroke-width:2.80932;stroke-linecap:round;stroke-linejoin:round;-inkscape-stroke:none"
         d="m -197.90039,153.41797 -2.00195,0.99219 v 19.99609 l 2.00195,0.99414 z"
         transform="matrix(0.26458334,0,0,0.26458334,0,280.06666)" />
      <path
         id="path4742"
         style="color:#000000;fill:#333333;fill-opacity:1;stroke-width:2.80932;stroke-linecap:round;stroke-linejoin:round;-inkscape-stroke:none"
         d="m -183.75781,157.77148 c -0.39,0.3879 -0.39349,1.01796 -0.008,1.41016 3.15488,3.17367 3.15483,7.44157 0,10.61524 -0.38567,0.3922 -0.38218,1.02225 0.008,1.41015 0.39006,0.38782 1.02009,0.38782 1.41015,0 3.82427,-3.84707 3.82433,-9.58848 0,-13.43555 -0.52181,-0.46595 -1.08587,-0.25912 -1.41015,0 z m -3.74219,2.7461 c -0.4386,0.3412 -0.51492,0.97453 -0.16992,1.41015 0.48097,0.61376 0.77539,1.57968 0.77539,2.5625 0,0.98283 -0.29442,1.95457 -0.77539,2.56836 -0.33967,0.43435 -0.26366,1.06169 0.16992,1.40235 0.43435,0.33967 1.06168,0.26365 1.40234,-0.16992 0.83705,-1.06817 1.20313,-2.44261 1.20313,-3.80079 0,-1.35817 -0.36608,-2.73452 -1.20313,-3.80273 -0.41374,-0.42234 -0.96248,-0.44422 -1.40234,-0.16992 z"
         transform="matrix(0.26458334,0,0,0.26458334,0,280.06666)"
         sodipodi:nodetypes="cccccccccscccscc" />
      <path
         id="path68054"
         style="color:#000000;fill:#cccccc;fill-opacity:1;stroke-width:0.743299;stroke-linecap:round;stroke-linejoin:round;-inkscape-stroke:none"
         d="m -57.65643,312.61351 c -0.430707,0 -0.803539,0.25835 -0.973584,0.62735 0.135808,-0.0626 0.285901,-0.0982 0.444418,-0.0982 h 6.465237 c 0.413091,1e-5 0.809045,0.15743 1.111043,0.43925 l 3.254066,3.0334 c 0.30472,0.28437 0.476456,0.68238 0.476456,1.09916 v 9.69554 c 0,0.1585 -0.03612,0.3086 -0.0987,0.44441 0.369075,-0.17002 0.627867,-0.54284 0.627867,-0.97358 v -9.69553 c 0,-0.41679 -0.171736,-0.8148 -0.476457,-1.09916 l -3.254065,-3.03341 c -0.301998,-0.28182 -0.697952,-0.43924 -1.111044,-0.43925 z" />
      <path
         id="path92354"
         style="color:#000000;fill:#363636;fill-opacity:1;stroke-width:0.743299;stroke-linecap:round;stroke-linejoin:round;-inkscape-stroke:none"
         d="m -55.833803,321.60366 c -0.397084,0 -0.683678,0.35809 -0.68368,0.74983 v 0.52916 c 2e-6,-0.39174 0.286596,-0.74982 0.68368,-0.74982 h 0.230476 c 0.397087,0 0.685231,0.35808 0.685231,0.74982 v -0.52916 c 0,-0.39174 -0.288144,-0.74983 -0.685231,-0.74983 z" />
    </g>
  </g>
</svg>
